<svg width="24" height="25" viewBox="0 0 24 25" fill="none" xmlns="http://www.w3.org/2000/svg">
<path d="M4 19.1284C4 17.6283 4.61298 16.1897 5.7041 15.1289C6.79522 14.0682 8.2751 13.4723 9.81818 13.4723C11.3613 13.4723 12.8411 14.0682 13.9323 15.1289C15.0234 16.1897 15.6364 17.6283 15.6364 19.1284H4ZM9.81818 12.7653C7.40727 12.7653 5.45454 10.867 5.45454 8.52321C5.45454 6.17946 7.40727 4.28113 9.81818 4.28113C12.2291 4.28113 14.1818 6.17946 14.1818 8.52321C14.1818 10.867 12.2291 12.7653 9.81818 12.7653ZM16.5425 5.82596C16.9051 6.6815 17.0914 7.59791 17.0909 8.52321C17.0915 9.44876 16.9052 10.3654 16.5425 11.2212L15.3229 10.3586C15.5309 9.76783 15.6368 9.14764 15.6364 8.52321C15.637 7.89883 15.5314 7.27864 15.3236 6.68781L16.5425 5.82596ZM18.944 4.12842C19.6409 5.49423 20.0024 6.9986 20 8.52321C20 10.102 19.6196 11.5945 18.944 12.9187L17.7476 12.0724C18.2741 10.9592 18.5462 9.74841 18.5454 8.52321C18.5462 7.29802 18.2741 6.0872 17.7476 4.97401L18.944 4.12842Z" fill="#8897A5"/>
</svg>
