<svg width="24" height="25" viewBox="0 0 24 25" fill="none" xmlns="http://www.w3.org/2000/svg">
<path d="M15.5 11.6283C15.5 13.6283 13 15.1283 13 16.6283H11C11 15.1283 8.50001 13.6283 8.50001 11.6283C8.50001 9.69835 10.07 8.12835 12 8.12835C13.93 8.12835 15.5 9.69835 15.5 11.6283ZM13 17.6283H11V19.1283H13V17.6283ZM22 12.1283C22 9.36835 20.88 6.86835 19.07 5.05835L18.01 6.11835C18.8002 6.90691 19.4269 7.84374 19.8542 8.87508C20.2815 9.90643 20.501 11.012 20.5 12.1283C20.5 14.4683 19.55 16.5983 18.01 18.1383L19.07 19.1983C20 18.271 20.7376 17.169 21.2404 15.9557C21.7432 14.7424 22.0014 13.4417 22 12.1283ZM3.50001 12.1283C3.50001 9.78835 4.45001 7.65835 5.99001 6.11835L4.93001 5.05835C4.00002 5.98573 3.26244 7.08773 2.75962 8.30102C2.2568 9.51431 1.99865 10.815 2.00001 12.1283C2.00001 14.8883 3.12001 17.3883 4.93001 19.1983L5.99001 18.1383C5.1998 17.3498 4.57307 16.413 4.14577 15.3816C3.71847 14.3503 3.49902 13.2447 3.50001 12.1283ZM17.5 12.1283C17.5 13.6483 16.88 15.0184 15.89 16.0184L16.95 17.0784C17.6009 16.4289 18.1171 15.6573 18.4689 14.8079C18.8207 13.9584 19.0012 13.0478 19 12.1283C19 10.1983 18.22 8.44835 16.95 7.17835L15.89 8.23835C16.88 9.23835 17.5 10.6083 17.5 12.1283ZM7.05001 17.0784L8.11 16.0184C7.11 15.0184 6.50001 13.6483 6.50001 12.1283C6.50001 10.6083 7.12 9.23835 8.11 8.23835L7.05001 7.17835C6.39912 7.82775 5.88296 8.59935 5.53116 9.44883C5.17935 10.2983 4.99885 11.2089 5.00001 12.1283C5.00001 14.0583 5.78001 15.8084 7.05001 17.0784Z" fill="#8897A5"/>
</svg>
