<svg width="24" height="25" viewBox="0 0 24 25" fill="none" xmlns="http://www.w3.org/2000/svg">
<path d="M8.59201 3.72852C8.16897 3.72865 7.75349 3.8406 7.38765 4.05302C7.02182 4.26544 6.71863 4.57079 6.50881 4.93812L5.11681 7.37412C4.90903 7.7373 4.79982 8.1485 4.80001 8.56692V10.9285C4.80001 11.2468 4.92643 11.552 5.15148 11.777C5.37652 12.0021 5.68175 12.1285 6.00001 12.1285H6.08521L5.22601 14.5369C4.78083 14.5802 4.3677 14.7876 4.0671 15.1188C3.76651 15.45 3.6 15.8812 3.60001 16.3285V18.7285C3.60001 19.2059 3.78965 19.6637 4.12721 20.0013C4.46478 20.3389 4.92262 20.5285 5.40001 20.5285H18.6C19.0774 20.5285 19.5352 20.3389 19.8728 20.0013C20.2104 19.6637 20.4 19.2059 20.4 18.7285V16.3285C20.4 15.8812 20.2335 15.45 19.9329 15.1188C19.6323 14.7876 19.2192 14.5802 18.774 14.5369L17.916 12.1285H18C18.3183 12.1285 18.6235 12.0021 18.8485 11.777C19.0736 11.552 19.2 11.2468 19.2 10.9285V8.56572C19.1998 8.14811 19.0906 7.7378 18.8832 7.37532L17.4912 4.93812C17.2813 4.57061 16.9779 4.26515 16.6118 4.05272C16.2458 3.84029 15.83 3.72844 15.4068 3.72852H8.59201ZM17.4864 10.9285L16.6284 8.52852H18V10.9285H17.4864ZM15.354 8.52852L17.4972 14.5285H6.50281L8.64601 8.52852H15.354ZM7.37161 8.52852L6.51481 10.9285H6.00001V8.52852H7.37161ZM10.2 16.9285H13.8C13.9591 16.9285 14.1117 16.9917 14.2243 17.1043C14.3368 17.2168 14.4 17.3694 14.4 17.5285C14.4 17.6876 14.3368 17.8403 14.2243 17.9528C14.1117 18.0653 13.9591 18.1285 13.8 18.1285H10.2C10.0409 18.1285 9.88826 18.0653 9.77574 17.9528C9.66322 17.8403 9.60001 17.6876 9.60001 17.5285C9.60001 17.3694 9.66322 17.2168 9.77574 17.1043C9.88826 16.9917 10.0409 16.9285 10.2 16.9285Z" fill="#8897A5"/>
</svg>
