<svg width="24" height="25" viewBox="0 0 24 25" fill="none" xmlns="http://www.w3.org/2000/svg">
<path d="M19 17.4683V19.4683H7V17.4683C7 17.4683 7 13.4683 13 13.4683C19 13.4683 19 17.4683 19 17.4683ZM16 8.46826C16 7.87492 15.8241 7.2949 15.4944 6.80155C15.1648 6.3082 14.6962 5.92369 14.1481 5.69662C13.5999 5.46956 12.9967 5.41015 12.4147 5.52591C11.8328 5.64166 11.2982 5.92739 10.8787 6.34694C10.4591 6.7665 10.1734 7.30105 10.0576 7.88299C9.94189 8.46494 10.0013 9.06813 10.2284 9.61631C10.4554 10.1645 10.8399 10.633 11.3333 10.9627C11.8266 11.2923 12.4067 11.4683 13 11.4683C13.7956 11.4683 14.5587 11.1522 15.1213 10.5896C15.6839 10.027 16 9.26391 16 8.46826ZM19.2 13.5283C19.7466 14.0326 20.1873 14.6407 20.4964 15.3172C20.8054 15.9936 20.9766 16.7249 21 17.4683V19.4683H24V17.4683C24 17.4683 24 14.0183 19.2 13.5283ZM18 5.46826C17.6979 5.46828 17.3976 5.51552 17.11 5.60826C17.6951 6.44723 18.0087 7.44545 18.0087 8.46826C18.0087 9.49108 17.6951 10.4893 17.11 11.3283C17.3976 11.421 17.6979 11.4682 18 11.4683C18.7956 11.4683 19.5587 11.1522 20.1213 10.5896C20.6839 10.027 21 9.26391 21 8.46826C21 7.67261 20.6839 6.90955 20.1213 6.34694C19.5587 5.78433 18.7956 5.46826 18 5.46826ZM8 10.4683H5V7.46826H3V10.4683H0V12.4683H3V15.4683H5V12.4683H8V10.4683Z" fill="#8897A5"/>
</svg>
