<svg width="24" height="25" viewBox="0 0 24 25" fill="none" xmlns="http://www.w3.org/2000/svg">
<path d="M12 10.4683C13.0609 10.4683 14.0783 10.0468 14.8284 9.29669C15.5786 8.54654 16 7.52913 16 6.46826C16 5.4074 15.5786 4.38998 14.8284 3.63983C14.0783 2.88969 13.0609 2.46826 12 2.46826C10.9391 2.46826 9.92172 2.88969 9.17157 3.63983C8.42143 4.38998 8 5.4074 8 6.46826C8 7.52913 8.42143 8.54654 9.17157 9.29669C9.92172 10.0468 10.9391 10.4683 12 10.4683ZM5.5 13.4683C6.16304 13.4683 6.79893 13.2049 7.26777 12.736C7.73661 12.2672 8 11.6313 8 10.9683C8 10.3052 7.73661 9.66934 7.26777 9.20049C6.79893 8.73165 6.16304 8.46826 5.5 8.46826C4.83696 8.46826 4.20107 8.73165 3.73223 9.20049C3.26339 9.66934 3 10.3052 3 10.9683C3 11.6313 3.26339 12.2672 3.73223 12.736C4.20107 13.2049 4.83696 13.4683 5.5 13.4683ZM21 10.9683C21 11.6313 20.7366 12.2672 20.2678 12.736C19.7989 13.2049 19.163 13.4683 18.5 13.4683C17.837 13.4683 17.2011 13.2049 16.7322 12.736C16.2634 12.2672 16 11.6313 16 10.9683C16 10.3052 16.2634 9.66934 16.7322 9.20049C17.2011 8.73165 17.837 8.46826 18.5 8.46826C19.163 8.46826 19.7989 8.73165 20.2678 9.20049C20.7366 9.66934 21 10.3052 21 10.9683ZM12 11.4683C13.3261 11.4683 14.5979 11.995 15.5355 12.9327C16.4732 13.8704 17 15.1422 17 16.4683V22.4683H7V16.4683C7 15.1422 7.52678 13.8704 8.46447 12.9327C9.40215 11.995 10.6739 11.4683 12 11.4683ZM5 16.4683C5 15.7753 5.1 15.1063 5.288 14.4743L5.118 14.4883C4.26088 14.5824 3.46866 14.9896 2.89326 15.6318C2.31786 16.274 1.99978 17.106 2 17.9683V22.4683H5V16.4683ZM22 22.4683V17.9683C22.0001 17.0766 21.6599 16.2186 21.0489 15.5692C20.4378 14.9199 19.602 14.5283 18.712 14.4743C18.899 15.1063 19 15.7753 19 16.4683V22.4683H22Z" fill="#8897A5"/>
</svg>
