<svg width="24" height="25" viewBox="0 0 24 25" fill="none" xmlns="http://www.w3.org/2000/svg">
<path d="M4.125 17.7183L1.5 22.9683H6.75L4.125 17.7183ZM19.5 11.7183V13.2183C20.3272 13.2183 21 13.8918 21 14.7183V18.4683C21 19.2955 20.3272 19.9683 19.5 19.9683H7.5V21.4683H19.5C21.1545 21.4683 22.5 20.1228 22.5 18.4683V14.7183C22.5 13.0638 21.1545 11.7183 19.5 11.7183Z" fill="#8897A5"/>
<path d="M10.5 18.4681C10.3371 18.468 10.1787 18.4149 10.0486 18.3168C9.91861 18.2187 9.82404 18.0809 9.77925 17.9243L8.4345 13.2181H6V11.7181H9C9.16289 11.7181 9.32133 11.7712 9.45136 11.8693C9.58139 11.9675 9.67596 12.1052 9.72075 12.2618L10.5 14.9881L12.7792 7.01183C12.8243 6.85544 12.9189 6.71792 13.0489 6.62005C13.1789 6.52217 13.3373 6.46924 13.5 6.46924C13.6627 6.46924 13.8211 6.52217 13.9511 6.62005C14.0811 6.71792 14.1757 6.85544 14.2208 7.01183L15.5655 11.7181H18V13.2181H15C14.8371 13.218 14.6787 13.1649 14.5486 13.0668C14.4186 12.9687 14.324 12.8309 14.2792 12.6743L13.5 9.94808L11.2208 17.9243C11.176 18.0809 11.0814 18.2187 10.9514 18.3168C10.8213 18.4149 10.6629 18.468 10.5 18.4681Z" fill="#8897A5"/>
<path d="M3 10.2183V6.46826C3 5.64101 3.67275 4.96826 4.5 4.96826H16.5V3.46826H4.5C2.8455 3.46826 1.5 4.81376 1.5 6.46826V10.2183C1.5 11.8728 2.8455 13.2183 4.5 13.2183V11.7183C3.67275 11.7183 3 11.0455 3 10.2183Z" fill="#8897A5"/>
<path d="M20.25 6.46826C21.4926 6.46826 22.5 5.4609 22.5 4.21826C22.5 2.97562 21.4926 1.96826 20.25 1.96826C19.0074 1.96826 18 2.97562 18 4.21826C18 5.4609 19.0074 6.46826 20.25 6.46826Z" fill="#8897A5"/>
</svg>
