<svg width="24" height="25" viewBox="0 0 24 25" fill="none" xmlns="http://www.w3.org/2000/svg">
<path d="M9 21.4683H15M9 21.4683V16.4683M9 21.4683H3.6C3.44087 21.4683 3.28826 21.405 3.17574 21.2925C3.06321 21.18 3 21.0274 3 20.8683V17.0683C3 16.9091 3.06321 16.7565 3.17574 16.644C3.28826 16.5315 3.44087 16.4683 3.6 16.4683H9M15 21.4683V9.46826M15 21.4683H20.4C20.5591 21.4683 20.7117 21.405 20.8243 21.2925C20.9368 21.18 21 21.0274 21 20.8683V4.06826C21 3.90913 20.9368 3.75652 20.8243 3.644C20.7117 3.53148 20.5591 3.46826 20.4 3.46826H15.6C15.4409 3.46826 15.2883 3.53148 15.1757 3.644C15.0632 3.75652 15 3.90913 15 4.06826V9.46826M9 16.4683V10.0683C9 9.90913 9.06321 9.75652 9.17574 9.644C9.28826 9.53148 9.44087 9.46826 9.6 9.46826H15" stroke="#8897A5" stroke-width="1.5"/>
</svg>
